<?xml version="1.0" encoding="utf-8"?>
<!-- Generator: Adobe Illustrator 17.0.0, SVG Export Plug-In . SVG Version: 6.00 Build 0)  -->
<!DOCTYPE svg PUBLIC "-//W3C//DTD SVG 1.1//EN" "http://www.w3.org/Graphics/SVG/1.1/DTD/svg11.dtd">
<svg version="1.1" id="Camada_1" xmlns="http://www.w3.org/2000/svg" xmlns:xlink="http://www.w3.org/1999/xlink" x="0px" y="0px"
	 width="601px" height="107px" viewBox="0 0 601 107" enable-background="new 0 0 601 107" xml:space="preserve">
<path fill="#FFFFFF" d="M9.574,95.836c0-26.88,0-53.76,0-80.64c0.512-0.43,0.758-1.2,1.577-1.24
	c1.436-0.003,2.871-0.006,4.307-0.007c10.448-0.011,20.896-0.021,31.344-0.031c0.518,0.036,1.039,0.05,1.555,0.113
	c16.94,2.052,26.27,21.299,17.397,35.906c-0.408,0.671-0.62,1.076,0.173,1.737c8.061,6.707,11.173,17.735,7.91,27.775
	c-3.249,9.995-12.381,17.014-22.973,17.657c-13.238-0.01-26.475-0.019-39.713-0.029C10.331,97.035,10.086,96.266,9.574,95.836z
	 M38.978,61.516c-3.716,0-7.432-0.005-11.148,0.003c-1.52,0.003-2.268,0.667-2.276,2.147c-0.026,5.154-0.027,10.309,0.002,15.463
	c0.008,1.421,0.755,2.099,2.197,2.101c7.272,0.01,14.544,0.044,21.816-0.009c5.301-0.039,9.719-4.65,9.643-9.931
	c-0.077-5.356-4.492-9.76-9.807-9.772C45.931,61.509,42.455,61.516,38.978,61.516z M36.801,29.797c-2.88,0-5.76-0.002-8.64,0.001
	c-1.985,0.002-2.61,0.6-2.614,2.541c-0.009,3.56-0.01,7.12,0,10.68c0.005,1.901,0.63,2.524,2.507,2.526
	c5.72,0.004,11.439,0.011,17.159-0.002c4.485-0.01,8.016-3.458,8.038-7.814c0.022-4.404-3.526-7.906-8.051-7.928
	C42.401,29.786,39.601,29.797,36.801,29.797z"/>
<path fill="#FFFFFF" d="M404.44,97.103c-4.224,0.008-8.447,0.016-12.669,0.025c-1.172-0.238-1.639-1.032-1.682-2.152
	c-0.014-0.359-0.005-0.72-0.005-1.079c0-15.753,0-31.506,0-47.258c0-0.43,0-0.86,0-1.439c-0.541,0.315-0.683,0.741-0.904,1.086
	c-7.566,11.796-15.126,23.595-22.689,35.393c-1.388,2.165-2.87,2.156-4.274-0.033c-7.628-11.898-15.251-23.799-22.876-35.699
	c-0.172-0.268-0.346-0.534-0.727-1.121c0,0.719,0,1.123,0,1.526c0,16.113-0.004,32.225,0.008,48.338
	c0.001,1.203-0.302,2.128-1.619,2.414c-4.217,0.004-8.432,0.008-12.645,0.012c-1.394-0.286-1.634-1.276-1.634-2.516
	c0.015-18.981,0.01-37.962,0.01-56.943c0-7.153,0.008-14.306-0.008-21.459c-0.003-1.185,0.385-2.02,1.63-2.28
	c4.217,0.004,8.432,0.008,12.645,0.012c0.82,0.079,1.211,0.685,1.604,1.299c8.264,12.906,16.53,25.812,24.798,38.716
	c0.298,0.465,0.618,0.917,0.989,1.466c2.988-4.668,5.91-9.235,8.835-13.801c5.618-8.771,11.24-17.54,16.853-26.316
	c0.419-0.656,0.843-1.269,1.689-1.39c4.225,0.008,8.449,0.017,12.671,0.025c1.122,0.24,1.548,1.022,1.606,2.083
	c0.013,0.239,0.007,0.479,0.007,0.719c0,25.857,0.001,51.713,0,77.57C406.054,96.14,405.788,96.594,404.44,97.103z"/>
<path fill="#FFFFFF" d="M269.23,97.148c-23.138,0-41.771-18.608-41.678-41.8c0.095-23.649,19.563-41.874,42.373-41.493
	c21.817,0.364,40.905,17.947,40.944,41.588C310.909,79.38,291.41,97.296,269.23,97.148z M243.465,55.51
	c-0.011,14.101,11.518,25.702,25.564,25.724c14.128,0.022,25.748-11.374,25.942-25.112c0.206-14.611-11.549-26.311-25.568-26.326
	C255.04,29.782,243.476,41.245,243.465,55.51z"/>
<path fill="#FFFFFF" d="M140.737,97.127c-0.279-0.015-0.558-0.042-0.837-0.042c-16.955-0.002-33.911-0.002-50.866-0.001
	c-0.199,0-0.399,0.02-0.596,0.03c-1.229-0.279-1.633-1.12-1.629-2.299c0.015-4.28,0.006-8.56,0.006-12.839
	c0-21.799,0.003-43.598-0.009-65.397c-0.001-1.259,0.174-2.332,1.632-2.663c4.96,0.01,9.918,0.028,14.875,0.03
	c11.996,0.004,23.993,0.002,35.989,0c0.479,0,0.958-0.027,1.435-0.042c1.151,0.272,1.613,1.013,1.605,2.179
	c-0.025,3.798-0.003,7.596-0.012,11.394c-0.004,1.654-0.712,2.316-2.478,2.317c-6.717,0.006-13.433,0.002-20.15,0.002
	c-4.838,0-9.675-0.003-14.513,0.002c-1.792,0.002-2.453,0.666-2.455,2.453c-0.004,3.638-0.006,7.276,0.001,10.914
	c0.003,1.715,0.666,2.374,2.405,2.376c6.197,0.007,12.394,0,18.591,0.004c2.175,0.001,2.761,0.596,2.762,2.777
	c0.001,3.598,0.006,7.196-0.002,10.795c-0.004,1.688-0.702,2.392-2.409,2.394c-6.277,0.009-12.554,0.002-18.83,0.004
	c-1.883,0.001-2.516,0.628-2.517,2.509c-0.004,4.918-0.004,9.835,0,14.753c0.001,1.788,0.664,2.454,2.455,2.455
	c11.434,0.003,22.868,0.001,34.303,0.002c2.298,0,2.841,0.535,2.841,2.799c0.001,3.638-0.016,7.276,0.009,10.914
	C142.351,96.114,141.889,96.855,140.737,97.127z"/>
<path fill="#FFFFFF" d="M191.811,97.147C171.952,97.148,154.917,83.14,151,63.588c-4.649-23.206,11.364-45.993,34.782-49.276
	c12.494-1.752,23.667,1.492,33.345,9.661c1.891,1.596,1.895,2.457,0.148,4.204c-2.432,2.432-4.863,4.865-7.296,7.296
	c-1.42,1.418-2.185,1.459-3.698,0.21c-12.231-10.102-30.486-6.867-38.594,6.841c-9.277,15.683,0.671,36.127,18.727,38.468
	c7.447,0.966,14.084-0.953,19.91-5.683c1.439-1.168,2.248-1.152,3.527,0.123c2.577,2.57,5.151,5.143,7.72,7.72
	c1.307,1.311,1.319,2.349-0.038,3.549c-5.854,5.178-12.637,8.453-20.327,9.843C196.761,96.985,194.295,97.181,191.811,97.147z"/>
<path fill="#FFFFFF" d="M475.749,97.115c-4.795-0.011-9.591-0.031-14.386-0.03c-12.629,0.004-25.258,0.019-37.885,0.029
	c-1.39-0.289-1.635-1.272-1.634-2.515c0.015-22.818,0.011-45.635,0.011-68.453c0-3.357,0.01-6.713-0.005-10.07
	c-0.005-1.154,0.458-1.91,1.628-2.16c4.877,0.01,9.753,0.031,14.628,0.029c12.549-0.004,25.098-0.019,37.645-0.03
	c1.151,0.265,1.633,1.012,1.629,2.169c-0.013,3.758,0.001,7.517-0.008,11.275c-0.004,1.762-0.694,2.434-2.497,2.435
	c-11.475,0.004-22.949,0.002-34.424,0.002c-2.119,0-2.714,0.59-2.716,2.686c-0.002,3.558-0.007,7.117,0.002,10.675
	c0.004,1.703,0.688,2.381,2.412,2.383c6.157,0.007,12.314,0,18.471,0.004c2.337,0.001,2.911,0.576,2.912,2.897
	c0.002,3.518,0.009,7.037-0.003,10.555c-0.006,1.835-0.698,2.513-2.559,2.515c-6.237,0.007-12.474,0.001-18.711,0.003
	c-1.864,0.001-2.523,0.654-2.524,2.514c-0.004,4.918-0.006,9.835,0.001,14.753c0.002,1.767,0.692,2.448,2.473,2.448
	c11.475,0.003,22.949,0.001,34.424,0.002c2.123,0,2.737,0.599,2.739,2.676c0.003,3.678-0.008,7.357,0.006,11.035
	C477.383,96.102,476.902,96.85,475.749,97.115z"/>
<path fill="#74B843" d="M501.084,13.901c2.84,0,5.68,0.023,8.519-0.013c0.943-0.012,1.658,0.268,2.338,0.948
	c26.092,26.118,52.198,52.222,78.308,78.321c0.755,0.754,1.321,1.537,0.83,2.642c-0.481,1.083-1.426,1.249-2.495,1.246
	c-5.56-0.019-11.12-0.035-16.679,0.012c-1.18,0.01-2.032-0.38-2.851-1.203c-8.748-8.786-17.522-17.546-26.289-26.313
	c-1.86-1.86-2.513-1.866-4.348-0.032c-8.796,8.795-17.6,17.584-26.375,26.4c-0.795,0.799-1.62,1.153-2.748,1.145
	c-5.519-0.042-11.039-0.028-16.559-0.011c-1.093,0.003-2.138-0.064-2.61-1.239c-0.455-1.133,0.112-1.948,0.911-2.745
	c11.885-11.872,23.751-23.763,35.622-35.649c1.598-1.6,1.595-2.382-0.023-4c-11.737-11.738-23.474-23.475-35.212-35.212
	c-0.283-0.283-0.565-0.567-0.845-0.852c-0.667-0.678-0.779-1.494-0.434-2.327c0.343-0.827,1.054-1.129,1.941-1.124
	C495.085,13.911,498.085,13.901,501.084,13.901z"/>
<path fill="#74B843" d="M591.423,15.994c0.049,0.72-0.5,1.251-1.044,1.795c-4.33,4.324-8.656,8.653-12.984,12.981
	c-6.562,6.562-13.123,13.124-19.686,19.685c-1.578,1.578-2.409,1.575-3.999-0.022c-2.738-2.749-5.472-5.501-8.205-8.254
	c-1.116-1.124-1.15-2.215-0.043-3.323c8.054-8.068,16.121-16.122,24.172-24.192c0.551-0.552,1.161-0.773,1.928-0.771
	c5.88,0.014,11.76,0.002,17.64,0.012C590.603,13.907,591.413,14.643,591.423,15.994z"/>
</svg>
